<svg width="32" height="32" viewBox="0 0 32 32" fill="none" xmlns="http://www.w3.org/2000/svg">
<path d="M6 6H10L13.68 24.39C13.8071 25.0282 14.1691 25.6011 14.6987 26.0016C15.2283 26.4022 15.8893 26.6027 16.56 26.57H25.8C26.4475 26.5985 27.0869 26.3897 27.6019 25.9818C28.1169 25.574 28.4735 24.9939 28.6 24.35L30.6 14.35C30.6865 13.9006 30.6272 13.4357 30.4283 13.0035C30.2294 12.5714 29.8981 12.1873 29.4691 11.8913C29.0401 11.5954 28.5292 11.3983 27.9904 11.321C27.4516 11.2436 26.9044 11.2887 26.4 11.45H12" stroke="#767676" stroke-width="2" stroke-linecap="round" stroke-linejoin="round"/>
<circle cx="15" cy="27" r="2" fill="#767676"/>
<circle cx="27" cy="27" r="2" fill="#767676"/>
</svg>
