<svg width="124" height="38" viewBox="0 0 124 38" fill="none" xmlns="http://www.w3.org/2000/svg">
<path d="M13.6 0H21.6V38H13.6V22.4H8V38H0V0H8V15.2H13.6V0Z" fill="#21BF48"/>
<path d="M43.2 0C48.5333 0 52.8667 1.46667 56.2 4.4C59.5333 7.33333 61.2 11.4 61.2 16.6V21.4C61.2 26.6 59.5333 30.6667 56.2 33.6C52.8667 36.5333 48.5333 38 43.2 38H29.6V0H43.2ZM43.2 30.8C46.1333 30.8 48.4 29.8667 50 28C51.6 26.1333 52.4 23.4667 52.4 20V18C52.4 14.5333 51.6 11.8667 50 10C48.4 8.13333 46.1333 7.2 43.2 7.2H37.6V30.8H43.2Z" fill="#21BF48"/>
<path d="M69.6 0H80.8C86.1333 0 90.2667 1.46667 93.2 4.4C96.1333 7.33333 97.6 11.4 97.6 16.6V21.4C97.6 26.6 96.1333 30.6667 93.2 33.6C90.2667 36.5333 86.1333 38 80.8 38H69.6V0ZM80.8 30.8C83.7333 30.8 86 29.8667 87.6 28C89.2 26.1333 90 23.4667 90 20V18C90 14.5333 89.2 11.8667 87.6 10C86 8.13333 83.7333 7.2 80.8 7.2H77.6V30.8H80.8Z" fill="#21BF48"/>
<path d="M106.4 0H114.4V23.6C114.4 25.7333 114.933 27.3333 116 28.4C117.067 29.4667 118.667 30 120.8 30C122.933 30 124.533 29.4667 125.6 28.4C126.667 27.3333 127.2 25.7333 127.2 23.6V0H135.2V23.6C135.2 28.1333 133.867 31.7333 131.2 34.4C128.533 37.0667 125.067 38.4 120.8 38C116.533 38 113.067 37.0667 110.4 34.4C107.733 31.7333 106.4 28.1333 106.4 23.6V0Z" fill="#21BF48"/>
</svg>
